<svg xmlns="http://www.w3.org/2000/svg" width="1128.33" height="908.842" viewBox="0 0 1128.33 908.842">
  <path id="Path_785" data-name="Path 785" d="M1128.33-350.814c-40.232-1.94-90.507,1.54-128.948,13.537s-74.813,36.555-91.932,73.119c-11.586,24.748-13.545,52.755-19.782,79.374s-18.75,54.261-43.058,66.619c-17.767,9.029-38.776,8.306-58.575,6.132-48.824-5.362-97.275-18.272-146.3-15.176S538.619-100.26,520.518-54.442c-15.671,39.677-3.605,89-28.795,123.386-43.3,59.116-150.082,19.555-200.537,72.649C255.446,179.2,265.412,247.172,225.6,280.4c-26.608,22.2-66.637,20.585-94.81,40.753-27.405,19.62-37.523,54.871-52.8,84.971S32.571,465.927,0,457.393a224.458,224.458,0,0,0,117.862,82.081c29.65,8.507,60.686,10.742,91.481,12.382,74.415,3.971,148.954,4.758,223.47,5.21q303.623,1.842,607.23-3.731c29.35-.54,59.779-1.292,88.286-8.335" transform="translate(0 351.318)" fill="#f3f2fc"/>
</svg>
