<svg xmlns="http://www.w3.org/2000/svg" width="77.083" height="95.771" viewBox="0 0 77.083 95.771">
  <g id="Group_153" data-name="Group 153" transform="translate(-373.245 -485.85)">
    <path id="Path_753" data-name="Path 753" d="M142.55-313.644,196-344.5c2.507-1.448,4.786-1.576,6.439-.619l5.415,3.148c-1.65-.957-3.929-.829-6.436.616L147.965-310.5c-4.975,2.875-9.036,9.906-9.02,15.63l.106,38.5c.012,2.839,1.024,4.844,2.653,5.789l-5.415-3.148c-1.632-.944-2.644-2.953-2.653-5.792l-.109-38.493c-.016-5.721,4.045-12.753,9.023-15.63" transform="translate(239.718 831.584)" fill="#6155a4"/>
    <path id="Path_754" data-name="Path 754" d="M146.216-311.512l53.449-30.86c4.984-2.875,9.07-.547,9.086,5.178l.108,38.5c.016,5.708-4.046,12.753-9.024,15.629l-9.383,5.415.325-.188-.325.188-1.415.817-22.694,13.1-3.161,1.827-.2.117.2-.117-16.8,9.7c-4.98,2.876-9.067.532-9.083-5.176l-.108-38.5c-.016-5.724,4.046-12.754,9.021-15.63" transform="translate(241.468 832.6)" fill="#9785be"/>
    <path id="Path_755" data-name="Path 755" d="M167.922-319.294l16.717-4.978v4.565l-16.717,17.692V-306.4l11.693-12.181-11.693,3.647Z" transform="translate(256.131 841.825)" fill="#fff"/>
    <path id="Path_756" data-name="Path 756" d="M172.57-295.751l-4.881,3.31L156.1-317.664l4.882-3.31Z" transform="translate(250.489 843.399)" fill="#fff"/>
    <path id="Path_757" data-name="Path 757" d="M161.067-312.591v4.356l-11.695,12.212,11.695-3.681v4.389l-16.717,4.981V-294.9Z" transform="translate(244.883 847.399)" fill="#fff"/>
  </g>
</svg>
