<svg xmlns="http://www.w3.org/2000/svg" width="54.9" height="54.894" viewBox="0 0 54.9 54.894">
  <g id="FB_icon" data-name="FB icon" transform="translate(0 9.3)">
    <path id="Path_17" data-name="Path 17" d="M6.449,19.489h5.513V6.686h3.282l.974-4.622H11.962V-.568c0-1.092.218-1.523,1.269-1.523h2.987V-6.884H12.4c-4.1,0-5.95,1.806-5.95,5.259V2.064H3.58V6.745H6.449Z" transform="translate(17.551 11.845)" fill="#2478f9"/>
    <path id="Path_18" data-name="Path 18" d="M27.453-6.136A24.283,24.283,0,1,0,51.73,18.147,24.307,24.307,0,0,0,27.453-6.136Zm0,51.73A27.447,27.447,0,1,1,54.9,18.147,27.48,27.48,0,0,1,27.453,45.594Z" transform="translate(0 0)" fill="#2478f9"/>
  </g>
</svg>
