<svg xmlns="http://www.w3.org/2000/svg" xmlns:xlink="http://www.w3.org/1999/xlink" width="161.433" height="183.152" viewBox="0 0 161.433 183.152">
  <defs>
    <clipPath id="clip-path">
      <path id="Path_479" data-name="Path 479" d="M94.824-71.663l-.067-.04c-22.166-21.353-34.623-60.57-13.417-97.863A78.845,78.845,0,0,1,137.2-208.528a80.653,80.653,0,0,0-63.492,57.669,80.529,80.529,0,0,0-3.036,21.689A80.189,80.189,0,0,0,84.628-83.857,81.332,81.332,0,0,0,94.824-71.663Zm89.86-130.85a79.852,79.852,0,0,0-11.906-4.332A76.986,76.986,0,0,1,184.684-202.513Z" transform="translate(-70.408 208.528)" fill="none" clip-rule="evenodd"/>
    </clipPath>
    <linearGradient id="linear-gradient" x1="-0.112" y1="0.848" x2="1.04" y2="0.848" gradientUnits="objectBoundingBox">
      <stop offset="0" stop-color="#4f53a4"/>
      <stop offset="0.1" stop-color="#5452a3"/>
      <stop offset="0.2" stop-color="#5a50a2"/>
      <stop offset="0.3" stop-color="#604fa1"/>
      <stop offset="0.4" stop-color="#664da0"/>
      <stop offset="0.5" stop-color="#6c4c9f"/>
      <stop offset="0.6" stop-color="#724a9e"/>
      <stop offset="0.7" stop-color="#78499d"/>
      <stop offset="0.8" stop-color="#7e479c"/>
      <stop offset="0.9" stop-color="#8c4399"/>
      <stop offset="1" stop-color="#9b3f97"/>
    </linearGradient>
  </defs>
  <g id="Group_120" data-name="Group 120" transform="translate(-1244 -671.322)">
    <path id="Path_474" data-name="Path 474" d="M208.057-185.283a80.331,80.331,0,0,0-56.987-23.61A80.556,80.556,0,0,0,73.523-150a80.529,80.529,0,0,0-3.036,21.689A80.189,80.189,0,0,0,84.442-83a80.487,80.487,0,0,0,66.629,35.271A80.541,80.541,0,0,0,229-108.108a80.484,80.484,0,0,0,2.657-20.2A80.333,80.333,0,0,0,208.057-185.283Z" transform="translate(1173.778 902.2)" fill="#7461aa"/>
    <path id="Path_475" data-name="Path 475" d="M177.8-201.863c-.856,2.908-2.465,6.462-3.812,7.227-4.776,2.73-9.256,4.426-12.238,2.21a29.683,29.683,0,0,0-15.3-5.807,14.334,14.334,0,0,0-9.7,3.086,11.033,11.033,0,0,1-7.439,2.126,13.321,13.321,0,0,0-3.271.255,12.1,12.1,0,0,0-7.375,5.481c-2.825,4.551-2.146,6.421.067,9.259,4.776,6.136,11.452,2.247,14.619,9.78,1.615,3.839-.225,10.19-.057,13.894.285,6.17-2.069,11.617-9.189,14.559-2.354.974-6.458,5.79-8.947,6.217-4.39.756-7.076-3.7-10.032-6.653a10.052,10.052,0,0,0-8.423-2.818c-6.5.611-6.848,4.087-9.6,9.471-1.874,3.667-3.882,6.22-3.8,8.43.188,4.672,5.128,8.608,7.876,13.649,1.8,3.308,4.319,4.95,4.833,9.995a9.487,9.487,0,0,0,6.028,8.181c3.543,1.236,10.106.672,14.133,1.548,5,1.085,9.115,5.723,13.431,6.969,4.393,1.269,8.927,2.243,11.563.487,1.951-1.3.678-3.547,4.238-5.887,5.1-3.352,9.995-5.286,14-9.834,2.388-2.707,4.248-5.965,6.912-8.437,5.081-4.719,11.06-5.7,17.064-8.527,4.2-1.978,10.989-4.742,15.348-7.688a80.483,80.483,0,0,0,2.657-20.2A80.333,80.333,0,0,0,177.8-201.863Z" transform="translate(1204.031 918.78)" fill="#6155a4"/>
    <path id="Path_476" data-name="Path 476" d="M93.053-132.7c1.229-2.2,3.6-2.824,5.78-4.336a12.782,12.782,0,0,0,3.879-3.725c2.633-3.926,3.59-7.479.443-11.6a30.783,30.783,0,0,0-8.581-7.234c-3.365-1.982-8.033-2.146-10.885-4.641-2.744-2.4-2.989-4.222-3.275-7.946-.2-2.6-.5-4.843-1.39-6.29-1.424-2.311-3.973-2.821-4.843-5.488a22.408,22.408,0,0,1-.658-7.4,80.529,80.529,0,0,0-3.036,21.689,80.189,80.189,0,0,0,13.955,45.313,23.636,23.636,0,0,0,4.786-2.059C91.518-127.69,91.864-130.582,93.053-132.7Z" transform="translate(1173.778 943.558)" fill="#6155a4"/>
    <path id="Path_477" data-name="Path 477" d="M88.8-188.508c-.484-1.454-3.4-3.976-4.591-5.014-1.32-1.145-3.268-.175-5.014-.171a2.179,2.179,0,0,1-1.29-.537c-.719-.514-1.364-1.031-2.707.369-2.287,2.381-2.264,4.484-.927,8.161,1.125,3.1,2.149,2.18,4.353,4.248,2.371,2.22.4,6.123,1.417,7.765.544.88.625,2.519,1.448,3,1,.588,2.465.124,4.336-1.071a5.661,5.661,0,0,1,3.389-.689,7.653,7.653,0,0,0,2.818-.332c2.526-.92,3.191-2.445,3.852-5.269.742-3.167-.924-3.812-2.747-4.947C90.846-184.427,88.955-188.058,88.8-188.508Z" transform="translate(1180.55 935.521)" fill="#6155a4"/>
    <g id="Group_119" data-name="Group 119" transform="translate(1244 694.533)" clip-path="url(#clip-path)">
      <g id="Group_118" data-name="Group 118" transform="translate(-236.465 700.339) rotate(-90)">
        <path id="Path_478" data-name="Path 478" d="M775.744,0V861.681H0V0Z" transform="translate(0 0)" fill="url(#linear-gradient)"/>
      </g>
    </g>
    <path id="Path_480" data-name="Path 480" d="M121.593-63.743a53.586,53.586,0,0,1-26.955-7.083,81.332,81.332,0,0,1-10.2-12.195,23.635,23.635,0,0,0,4.786-2.059c2.29-1.276,2.636-4.168,3.825-6.29,1.229-2.2,3.6-2.824,5.78-4.336a12.782,12.782,0,0,0,3.879-3.725,13.951,13.951,0,0,0,2.267-4.9,35.07,35.07,0,0,0,11.264,2.005,75.008,75.008,0,0,1,5.2,7.389c1.8,3.308,4.319,4.95,4.833,9.995a9.487,9.487,0,0,0,6.028,8.181c3.543,1.236,10.106.672,14.133,1.548a20.577,20.577,0,0,1,6.7,3.244A67.965,67.965,0,0,1,121.593-63.743Zm-35.8-57.813a9.144,9.144,0,0,1-2.1-1.347c-2.744-2.4-2.989-4.222-3.275-7.946-.2-2.6-.5-4.843-1.39-6.29-1.424-2.311-3.973-2.821-4.843-5.488a22.408,22.408,0,0,1-.658-7.4,80.529,80.529,0,0,0-3.036,21.689,80.529,80.529,0,0,1,3.036-21.689,80.654,80.654,0,0,1,63.492-57.669,83.213,83.213,0,0,1,14.035-1.192,81.505,81.505,0,0,1,21.541,2.875,79.851,79.851,0,0,1,11.906,4.332,59.034,59.034,0,0,1,15.15,25.864,12.3,12.3,0,0,1-4.346.964,5.363,5.363,0,0,1-3.295-1.021,29.683,29.683,0,0,0-15.3-5.807c-.3-.017-.594-.024-.88-.024a14.477,14.477,0,0,0-8.819,3.11c-.252.178-.5.339-.739.49a35.479,35.479,0,0,0-15.221-18.143,34.5,34.5,0,0,0-17.394-4.564c-16.366,0-33.83,10.586-44.211,28.567a63.933,63.933,0,0,0-5.071,11.09,1.555,1.555,0,0,0-.86-.319,2.279,2.279,0,0,0-1.542.9c-2.287,2.381-2.264,4.484-.927,8.161a6.9,6.9,0,0,0,.749,1.552C80.136-140.252,81.55-129.948,85.788-121.556Zm71.029-2.9a63.671,63.671,0,0,0,4.245-6.438q1.35-2.338,2.479-4.729A13.252,13.252,0,0,1,156.817-124.454Z" transform="translate(1173.778 902.224)" fill="#7d6aaf"/>
    <path id="Path_481" data-name="Path 481" d="M121-91.06a20.578,20.578,0,0,0-6.7-3.244c-4.027-.877-10.589-.312-14.133-1.548a9.487,9.487,0,0,1-6.028-8.181c-.514-5.044-3.033-6.687-4.833-9.995a75.009,75.009,0,0,0-5.2-7.389c.2,0,.406.007.608.007,14.3,0,29.447-8.087,39.966-22.132a13.251,13.251,0,0,0,6.724-11.167c6.875-14.542,7.563-30.149,2.73-42.478.242-.151.487-.312.739-.49a14.477,14.477,0,0,1,8.819-3.11c.285,0,.581.007.88.024a29.683,29.683,0,0,1,15.3,5.807,5.363,5.363,0,0,0,3.295,1.021,12.3,12.3,0,0,0,4.346-.964c5.971,20.362,3,45.313-9.992,67.811C148.154-110.859,135.177-98.53,121-91.06Z" transform="translate(1205.91 921.313)" fill="#6a5da8"/>
    <path id="Path_482" data-name="Path 482" d="M84.442-124.355a80.189,80.189,0,0,1-13.955-45.313,80.529,80.529,0,0,1,3.036-21.689,22.408,22.408,0,0,0,.658,7.4c.87,2.667,3.419,3.177,4.843,5.488.893,1.448,1.192,3.691,1.39,6.29.285,3.725.531,5.542,3.275,7.946a9.143,9.143,0,0,0,2.1,1.347,34.823,34.823,0,0,0,13.669,14.67,33.837,33.837,0,0,0,5.521,2.552,13.952,13.952,0,0,1-2.267,4.9,12.782,12.782,0,0,1-3.879,3.725c-2.176,1.511-4.551,2.139-5.78,4.336-1.189,2.123-1.535,5.014-3.825,6.29A23.636,23.636,0,0,1,84.442-124.355Z" transform="translate(1173.778 943.558)" fill="#6a5da8"/>
    <path id="Path_483" data-name="Path 483" d="M75.024-184.149a6.9,6.9,0,0,1-.749-1.552c-1.337-3.678-1.36-5.78.927-8.161a2.279,2.279,0,0,1,1.542-.9,1.554,1.554,0,0,1,.86.319A60.007,60.007,0,0,0,75.024-184.149Z" transform="translate(1180.55 935.521)" fill="#6a5da8"/>
    <path id="Path_484" data-name="Path 484" d="M108.777-108a35.07,35.07,0,0,1-11.264-2.005,7.972,7.972,0,0,0-1.824-6.693,30.783,30.783,0,0,0-8.581-7.234c-2.626-1.548-6.052-1.988-8.786-3.295-4.238-8.393-5.652-18.7-3.993-29.3.89,1.29,1.891,1.092,3.6,2.7,2.371,2.22.4,6.123,1.417,7.765.544.88.625,2.519,1.448,3a1.953,1.953,0,0,0,1,.252,6.78,6.78,0,0,0,3.335-1.323,5.058,5.058,0,0,1,2.919-.692c.154,0,.312,0,.47,0s.319,0,.48,0a6.617,6.617,0,0,0,2.337-.336,4.878,4.878,0,0,0,3.238-3.14,18.771,18.771,0,0,0,3.634,2.737,19.272,19.272,0,0,0,9.713,2.546c9.138,0,18.891-5.911,24.688-15.953,7.956-13.78,5.454-30.116-5.589-36.493a19.278,19.278,0,0,0-9.716-2.549c-9.138,0-18.892,5.914-24.688,15.953a32.43,32.43,0,0,0-4.188,21.844,6.332,6.332,0,0,1-.322-.672c-.484-1.454-3.4-3.976-4.591-5.014a2.437,2.437,0,0,0-1.683-.557c-1.055,0-2.233.386-3.332.386h0a2.181,2.181,0,0,1-1.286-.537c-.1-.074-.2-.148-.306-.215a63.934,63.934,0,0,1,5.071-11.09c10.381-17.981,27.845-28.567,44.211-28.567a34.5,34.5,0,0,1,17.394,4.564,35.479,35.479,0,0,1,15.221,18.143,10.6,10.6,0,0,1-6.207,1.636h-.494c-.161,0-.319,0-.48,0a11.776,11.776,0,0,0-2.791.259,12.1,12.1,0,0,0-7.375,5.481c-2.824,4.551-2.146,6.421.067,9.259,4.776,6.136,11.452,2.247,14.619,9.78,1.615,3.839-.225,10.19-.057,13.894a19.515,19.515,0,0,1-.013,2.173q-1.128,2.388-2.479,4.729a63.673,63.673,0,0,1-4.245,6.438,18.747,18.747,0,0,1-2.452,1.219c-2.354.974-6.458,5.79-8.947,6.217a5.782,5.782,0,0,1-.974.084c-3.829,0-6.327-4.01-9.058-6.737a9.75,9.75,0,0,0-7.154-2.878q-.645,0-1.27.06c-6.5.611-6.848,4.087-9.6,9.471-1.874,3.667-3.882,6.22-3.8,8.43C106.191-112.074,107.32-110.052,108.777-108Z" transform="translate(1181.244 907.896)" fill="#8b78b7"/>
    <path id="Path_485" data-name="Path 485" d="M86.6-123.939c-.2,0-.406,0-.608-.007-1.458-2.052-2.586-4.074-2.673-6.26-.087-2.21,1.921-4.762,3.8-8.43,2.751-5.384,3.1-8.86,9.6-9.471q.625-.06,1.269-.06a9.75,9.75,0,0,1,7.154,2.878c2.73,2.727,5.229,6.741,9.058,6.737a5.782,5.782,0,0,0,.974-.084c2.489-.426,6.593-5.243,8.947-6.217a18.743,18.743,0,0,0,2.452-1.219C116.045-132.027,100.9-123.939,86.6-123.939Zm46.69-33.3a19.5,19.5,0,0,0,.013-2.173c-.168-3.7,1.673-10.055.057-13.894-3.167-7.533-9.844-3.644-14.619-9.78-2.213-2.838-2.892-4.709-.067-9.259a12.1,12.1,0,0,1,7.375-5.481,11.778,11.778,0,0,1,2.791-.259c.161,0,.319,0,.48,0h.494a10.6,10.6,0,0,0,6.207-1.636C140.851-187.388,140.163-171.781,133.288-157.239Z" transform="translate(1204.031 923.841)" fill="#7365ac"/>
    <path id="Path_486" data-name="Path 486" d="M94.233-165.659a33.839,33.839,0,0,1-5.521-2.552,34.824,34.824,0,0,1-13.669-14.67c2.734,1.306,6.159,1.746,8.786,3.295a30.782,30.782,0,0,1,8.581,7.234A7.972,7.972,0,0,1,94.233-165.659Z" transform="translate(1184.524 963.549)" fill="#7365ac"/>
    <path id="Path_487" data-name="Path 487" d="M81.323-170.66a1.953,1.953,0,0,1-1-.252c-.823-.48-.9-2.119-1.448-3-1.018-1.642.954-5.545-1.417-7.765-1.713-1.605-2.714-1.407-3.6-2.7a60.006,60.006,0,0,1,2.579-10.3c.1.067.2.141.306.215a2.181,2.181,0,0,0,1.286.537h0c1.1,0,2.277-.386,3.332-.386a2.437,2.437,0,0,1,1.683.558c1.2,1.038,4.107,3.56,4.591,5.014a6.327,6.327,0,0,0,.322.672A21.842,21.842,0,0,0,94.1-176.145,4.878,4.878,0,0,1,90.865-173a6.617,6.617,0,0,1-2.337.336c-.161,0-.322,0-.48,0s-.316,0-.47,0a5.058,5.058,0,0,0-2.919.692A6.78,6.78,0,0,1,81.323-170.66Z" transform="translate(1181.719 935.745)" fill="#7365ac"/>
    <path id="Path_488" data-name="Path 488" d="M97.869-148.961a19.272,19.272,0,0,1-9.713-2.546,18.771,18.771,0,0,1-3.634-2.737,16.16,16.16,0,0,0,.615-2.129c.742-3.167-.924-3.812-2.747-4.947a13.957,13.957,0,0,1-4.013-4.84A32.43,32.43,0,0,1,82.564-188c5.8-10.039,15.55-15.953,24.688-15.953a19.278,19.278,0,0,1,9.716,2.549c11.043,6.378,13.545,22.714,5.589,36.493C116.76-154.872,107.007-148.961,97.869-148.961Z" transform="translate(1191.3 913.844)" fill="#9785be"/>
    <path id="Path_489" data-name="Path 489" d="M84.2-180.786A21.842,21.842,0,0,1,78.053-192.7a13.957,13.957,0,0,0,4.013,4.84c1.824,1.135,3.489,1.78,2.747,4.947A16.16,16.16,0,0,1,84.2-180.786Z" transform="translate(1191.623 940.386)" fill="#8172b4"/>
    <path id="Path_490" data-name="Path 490" d="M121.223-212.876a2.559,2.559,0,0,1-2.563,2.559,2.559,2.559,0,0,1-2.559-2.559,2.561,2.561,0,0,1,2.559-2.562A2.562,2.562,0,0,1,121.223-212.876Z" transform="translate(1281.358 886.761)" fill="#fff"/>
  </g>
</svg>
