<svg xmlns="http://www.w3.org/2000/svg" width="141.442" height="179.417" viewBox="0 0 141.442 179.417">
  <g id="Group_154" data-name="Group 154" transform="translate(-126.986 419.144)">
    <path id="Path_758" data-name="Path 758" d="M86.757-263.222,226.615-342.88a1.631,1.631,0,0,0,.792-1.244V-442.06c0-.437-.355-.591-.792-.341L86.757-362.744a1.632,1.632,0,0,0-.793,1.244v97.936c0,.437.355.588.793.341" transform="translate(41.022 23.377)" fill="#6155a4"/>
    <path id="Path_759" data-name="Path 759" d="M90.351-274.656,219.5-348.215a1.438,1.438,0,0,0,.7-1.1V-431.89c0-.386-.313-.521-.7-.3L90.351-358.631a1.442,1.442,0,0,0-.7,1.1v82.577c0,.385.314.52.7.3" transform="translate(42.781 28.256)" fill="#333e4f"/>
    <path id="Path_760" data-name="Path 760" d="M107.06-361.981l95.567-54.432V-419.9L107.06-365.476Z" transform="translate(51.088 34.169)" fill="#9785be"/>
    <path id="Path_761" data-name="Path 761" d="M132.175-375.526l58.466-33.3v-3.5l-58.466,33.3Z" transform="translate(63.073 37.789)" fill="#9785be"/>
    <path id="Path_762" data-name="Path 762" d="M167.875-400.242l5.73-3.263V-407l-5.73,3.265Z" transform="translate(80.109 40.328)" fill="#9785be"/>
    <path id="Path_763" data-name="Path 763" d="M161.464-396.591l5.733-3.263v-3.495l-5.733,3.265Z" transform="translate(77.049 42.07)" fill="#fb2b93"/>
    <path id="Path_764" data-name="Path 764" d="M148.787-375.283l24.458-13.93v-3.5l-24.458,13.93Z" transform="translate(71 47.148)" fill="#f48711"/>
    <path id="Path_765" data-name="Path 765" d="M148.787-369.963l24.458-13.93v-3.5l-24.458,13.93Z" transform="translate(71 49.687)" fill="#f48711"/>
    <path id="Path_766" data-name="Path 766" d="M103.334-346.825l9.516-5.421v-3.492l-9.516,5.421Z" transform="translate(49.31 64.79)" fill="#f48711"/>
    <path id="Path_767" data-name="Path 767" d="M148.787-364.643l24.458-13.93v-3.494l-24.458,13.928Z" transform="translate(71 52.226)" fill="#f48711"/>
    <path id="Path_768" data-name="Path 768" d="M103.334-338.755l24.459-13.93v-3.5l-24.459,13.933Z" transform="translate(49.31 64.579)" fill="#f48711"/>
    <path id="Path_769" data-name="Path 769" d="M148.787-359.322l24.458-13.93v-3.5l-24.458,13.93Z" transform="translate(71 54.764)" fill="#f48711"/>
    <path id="Path_770" data-name="Path 770" d="M103.334-328.408,155.116-357.9v-3.5L103.334-331.9Z" transform="translate(49.31 62.091)" fill="#f48711"/>
    <path id="Path_771" data-name="Path 771" d="M154.923-392.865l5.73-3.263v-3.5l-5.73,3.263Z" transform="translate(73.928 43.848)" fill="#fb2b93"/>
    <path id="Path_772" data-name="Path 772" d="M148.348-389.122l5.73-3.263v-3.492l-5.73,3.263Z" transform="translate(70.791 45.635)" fill="#fb2b93"/>
    <path id="Path_773" data-name="Path 773" d="M103.365-390.7l4.353-2.48a1.409,1.409,0,0,0,.688-1.081v-2.112c0-.383-.309-.516-.688-.3l-4.353,2.477a1.422,1.422,0,0,0-.687,1.084v2.114c0,.38.307.514.687.3" transform="translate(48.997 45.208)" fill="#fb2b93"/>
    <path id="Path_774" data-name="Path 774" d="M96.824-386.97l4.353-2.477a1.417,1.417,0,0,0,.688-1.081v-2.117c0-.38-.308-.514-.688-.3l-4.353,2.48a1.413,1.413,0,0,0-.688,1.081v2.112c0,.383.308.516.688.3" transform="translate(45.875 46.986)" fill="#fb2b93"/>
    <path id="Path_775" data-name="Path 775" d="M90.25-383.225l4.351-2.48a1.412,1.412,0,0,0,.691-1.081V-388.9c0-.383-.311-.514-.691-.3L90.25-386.72a1.416,1.416,0,0,0-.688,1.084v2.112c0,.381.305.516.688.3" transform="translate(42.738 48.773)" fill="#fb2b93"/>
    <path id="Path_776" data-name="Path 776" d="M141.412-385.168l5.732-3.265v-3.495l-5.732,3.265Z" transform="translate(67.481 47.52)" fill="#fb2b93"/>
    <path id="Path_777" data-name="Path 777" d="M118.017-367.283l30.529-17.387v-3.492l-30.529,17.387Z" transform="translate(56.317 49.317)" fill="#fb2b93"/>
    <path id="Path_778" data-name="Path 778" d="M167.875-394.92l5.73-3.265v-3.5l-5.73,3.265Z" transform="translate(80.109 42.866)" fill="#9785be"/>
    <path id="Path_779" data-name="Path 779" d="M104.627-343.45l89.691-51.083v-3.5l-89.691,51.083Z" transform="translate(49.927 44.609)" fill="#ffb623"/>
    <path id="Path_780" data-name="Path 780" d="M167.875-389.6l5.73-3.263v-3.5l-5.73,3.263Z" transform="translate(80.109 45.406)" fill="#9785be"/>
    <path id="Path_781" data-name="Path 781" d="M167.875-384.281l5.73-3.263v-3.5l-5.73,3.263Z" transform="translate(80.109 47.944)" fill="#9785be"/>
    <path id="Path_782" data-name="Path 782" d="M118.017-376.009l12.029-6.848v-3.492L118.017-379.5Z" transform="translate(56.317 50.182)" fill="#9785be"/>
    <path id="Path_783" data-name="Path 783" d="M98.82-373.421l7.881-4.489v-3.5l-7.881,4.492Z" transform="translate(47.156 52.542)" fill="#9785be"/>
    <path id="Path_784" data-name="Path 784" d="M95.927-353.546l7.882-4.491v-3.492l-7.882,4.488Z" transform="translate(45.776 62.026)" fill="#ffb623"/>
  </g>
</svg>
