<svg xmlns="http://www.w3.org/2000/svg" xmlns:xlink="http://www.w3.org/1999/xlink" width="100%" height="auto" viewBox="0 0 2252.091 724.644">
  <defs>
    <clipPath id="clip-path">
      <path id="Path_787" data-name="Path 787" d="M1928.656,0c-83.618,0-137.686,97.213-210.379,127.393-24.326,10.1-49.173,13.361-74.273,13.361-22.958,0-46.133-2.726-69.345-5.458s-46.451-5.462-69.529-5.462a243.7,243.7,0,0,0-27.007,1.418c-87.588,9.764-140.85,88.495-219.038,119.89-28.214,11.325-57.606,16.419-87.385,16.419a279.646,279.646,0,0,1-37.438-2.579c-45.069-6.088-89.388-20.858-135.121-20.858q-3.938,0-7.889.152c-49.735,1.921-89.858,29.323-133.03,50.633q-7.185,3.544-14.457,6.641l-11.491,4.573q-8.276,3.06-16.695,5.508l-14.005,3.578a213.581,213.581,0,0,1-46.419,5.121c-.893,0-1.778,0-2.671-.018C670.75,319.29,562.548,271.1,516.765,270.32c-46.875-.8-87.853,11.189-114.267,33.979-35.585,30.7-78.216,31.488-119.025,8.746-13.913-6.125-26.431-14.015-38.691-21.908-25.929-16.686-50.707-33.371-85.022-33.376-2.786,0-5.623.111-8.539.336C87.2,263.112,40.082,285.214,0,326.876V724.644H2252.091V92.819a287.662,287.662,0,0,1-58.674,6.042,286.7,286.7,0,0,1-36.112-2.28,270.643,270.643,0,0,1-98.581-32.16c-36.812-20.725-68.2-55.469-111.324-62.81A111.132,111.132,0,0,0,1928.656,0Z" transform="translate(0 0)" fill="none" clip-rule="evenodd"/>
    </clipPath>
  </defs>
  <g id="Group_157" data-name="Group 157" transform="translate(2252.091 784.644) rotate(180)">
    <g id="Group_156" data-name="Group 156" transform="translate(0 60)" clip-path="url(#clip-path)">
      <g id="Group_155" data-name="Group 155" transform="translate(2252.091 0) rotate(90)">
        <path id="Path_786" data-name="Path 786" d="M724.644,2252.091V0H0V2252.091Z" fill="#f3f2fc"/>
      </g>
    </g>
    <path id="Path_788" data-name="Path 788" d="M4.463,2.234A2.231,2.231,0,1,0,2.234,4.458,2.232,2.232,0,0,0,4.463,2.234Z" transform="translate(241.508 638.964)" fill="#fff"/>
    <path id="Path_789" data-name="Path 789" d="M4.458,2.229A2.229,2.229,0,1,0,2.229,4.458,2.228,2.228,0,0,0,4.458,2.229Z" transform="translate(571.156 393.371)" fill="#fff"/>
    <path id="Path_790" data-name="Path 790" d="M7.028,3.514A3.514,3.514,0,1,0,3.514,7.028,3.516,3.516,0,0,0,7.028,3.514Z" transform="translate(1320.568 458.939)" fill="#fff"/>
    <path id="Path_791" data-name="Path 791" d="M7.028,3.514A3.514,3.514,0,1,0,3.514,7.028,3.516,3.516,0,0,0,7.028,3.514Z" transform="translate(238.275 504.994)" fill="#fff"/>
    <path id="Path_792" data-name="Path 792" d="M7.028,3.514A3.514,3.514,0,1,0,3.514,7.028,3.516,3.516,0,0,0,7.028,3.514Z" transform="translate(514.605 620.132)" fill="#fff"/>
    <path id="Path_793" data-name="Path 793" d="M4.463,2.229A2.231,2.231,0,1,0,2.234,4.463,2.231,2.231,0,0,0,4.463,2.229Z" transform="translate(419.041 469.564)" fill="#fff"/>
    <path id="Path_794" data-name="Path 794" d="M7.023,3.509A3.512,3.512,0,1,0,3.509,7.023,3.509,3.509,0,0,0,7.023,3.509Z" transform="translate(923.68 392.846)" fill="#fff"/>
    <path id="Path_795" data-name="Path 795" d="M7.028,3.514A3.514,3.514,0,1,0,3.514,7.028,3.516,3.516,0,0,0,7.028,3.514Z" transform="translate(675.798 504.994)" fill="#fff"/>
    <path id="Path_796" data-name="Path 796" d="M7.028,3.514A3.514,3.514,0,1,0,3.514,7.028,3.516,3.516,0,0,0,7.028,3.514Z" transform="translate(975.155 597.104)" fill="#fff"/>
    <path id="Path_797" data-name="Path 797" d="M4.463,2.229A2.231,2.231,0,1,0,2.234,4.463,2.231,2.231,0,0,0,4.463,2.229Z" transform="translate(1271.059 607.729)" fill="#fff"/>
    <path id="Path_798" data-name="Path 798" d="M7.023,3.509A3.512,3.512,0,1,0,3.509,7.023,3.509,3.509,0,0,0,7.023,3.509Z" transform="translate(1153.955 438.901)" fill="#fff"/>
    <path id="Path_799" data-name="Path 799" d="M7.023,3.514A3.512,3.512,0,1,0,3.514,7.023,3.509,3.509,0,0,0,7.023,3.514Z" transform="translate(51.752 350.65)" fill="#fff"/>
    <path id="Path_800" data-name="Path 800" d="M7.023,3.514A3.512,3.512,0,1,0,3.509,7.023,3.51,3.51,0,0,0,7.023,3.514Z" transform="translate(55.266 569.434)" fill="#fff"/>
    <path id="Path_801" data-name="Path 801" d="M4.463,2.234A2.231,2.231,0,1,0,2.234,4.458,2.232,2.232,0,0,0,4.463,2.234Z" transform="translate(1669.214 500.799)" fill="#fff"/>
    <path id="Path_802" data-name="Path 802" d="M4.463,2.229A2.231,2.231,0,1,0,2.234,4.463,2.231,2.231,0,0,0,4.463,2.229Z" transform="translate(1501.334 469.564)" fill="#fff"/>
    <path id="Path_803" data-name="Path 803" d="M4.458,2.229A2.229,2.229,0,1,0,2.229,4.458,2.228,2.228,0,0,0,4.458,2.229Z" transform="translate(1906.752 393.371)" fill="#fff"/>
    <path id="Path_804" data-name="Path 804" d="M4.458,2.229A2.229,2.229,0,1,0,2.229,4.463,2.228,2.228,0,0,0,4.458,2.229Z" transform="translate(2166.963 650.45)" fill="#fff"/>
    <path id="Path_805" data-name="Path 805" d="M4.463,2.234A2.231,2.231,0,1,0,2.229,4.463,2.233,2.233,0,0,0,4.463,2.234Z" transform="translate(2130.957 238.405)" fill="#fff"/>
    <path id="Path_806" data-name="Path 806" d="M4.453,2.229A2.227,2.227,0,1,0,2.229,4.458,2.224,2.224,0,0,0,4.453,2.229Z" transform="translate(2151.198 454.463)" fill="#fff"/>
    <path id="Path_807" data-name="Path 807" d="M4.463,2.229A2.231,2.231,0,1,0,2.233,4.458,2.231,2.231,0,0,0,4.463,2.229Z" transform="translate(1904.518 594.875)" fill="#fff"/>
    <path id="Path_808" data-name="Path 808" d="M4.463,2.229A2.231,2.231,0,1,0,2.234,4.458,2.231,2.231,0,0,0,4.463,2.229Z" transform="translate(1831.415 181.269)" fill="#fff"/>
    <path id="Path_809" data-name="Path 809" d="M4.453,2.229A2.227,2.227,0,1,0,2.229,4.458,2.224,2.224,0,0,0,4.453,2.229Z" transform="translate(1503.568 158.858)" fill="#fff"/>
    <path id="Path_810" data-name="Path 810" d="M4.458,2.229A2.229,2.229,0,1,0,2.229,4.463,2.228,2.228,0,0,0,4.458,2.229Z" transform="translate(1856.091 440.752)" fill="#fff"/>
    <path id="Path_811" data-name="Path 811" d="M4.458,2.229A2.229,2.229,0,1,0,2.229,4.458,2.228,2.228,0,0,0,4.458,2.229Z" transform="translate(1563.642 323.045)" fill="#fff"/>
    <path id="Path_812" data-name="Path 812" d="M7.023,3.514A3.512,3.512,0,1,0,3.514,7.028,3.506,3.506,0,0,0,7.023,3.514Z" transform="translate(1371.684 289.986)" fill="#fff"/>
    <path id="Path_813" data-name="Path 813" d="M7.028,3.514A3.514,3.514,0,1,0,3.514,7.028,3.516,3.516,0,0,0,7.028,3.514Z" transform="translate(1458.733 597.104)" fill="#fff"/>
    <path id="Path_814" data-name="Path 814" d="M7.028,3.514A3.514,3.514,0,1,0,3.514,7.028,3.51,3.51,0,0,0,7.028,3.514Z" transform="translate(1781.685 132.441)" fill="#fff"/>
    <path id="Path_815" data-name="Path 815" d="M7.024,3.514A3.512,3.512,0,1,0,3.509,7.028,3.513,3.513,0,0,0,7.024,3.514Z" transform="translate(1720.998 661.655)" fill="#fff"/>
    <path id="Path_816" data-name="Path 816" d="M7.023,3.514A3.512,3.512,0,1,0,3.509,7.023,3.513,3.513,0,0,0,7.023,3.514Z" transform="translate(2002.5 626.022)" fill="#fff"/>
    <path id="Path_817" data-name="Path 817" d="M7.033,3.509A3.516,3.516,0,1,0,3.514,7.023,3.513,3.513,0,0,0,7.033,3.509Z" transform="translate(1962.81 84.968)" fill="#fff"/>
    <path id="Path_818" data-name="Path 818" d="M7.028,3.514A3.514,3.514,0,1,0,3.514,7.028,3.516,3.516,0,0,0,7.028,3.514Z" transform="translate(1995.472 249.472)" fill="#fff"/>
    <path id="Path_819" data-name="Path 819" d="M7.023,3.514A3.512,3.512,0,1,0,3.514,7.023,3.507,3.507,0,0,0,7.023,3.514Z" transform="translate(2107.211 293.5)" fill="#fff"/>
    <path id="Path_820" data-name="Path 820" d="M7.024,3.509A3.512,3.512,0,1,0,3.509,7.023,3.509,3.509,0,0,0,7.024,3.509Z" transform="translate(1637.533 277.708)" fill="#fff"/>
  </g>
</svg>
