<svg xmlns="http://www.w3.org/2000/svg" width="56.93" height="54.894" viewBox="0 0 56.93 54.894">
  <g id="Group_10" data-name="Group 10" transform="translate(0 9.007)">
    <path id="Path_19" data-name="Path 19" d="M2.606,10.276A13.365,13.365,0,0,0,9.847,12.4c10.468,0,13.717-7.41,13.418-14.049a8.431,8.431,0,0,0,2.359-2.444,8.938,8.938,0,0,1-2.618.755,4.62,4.62,0,0,0,1.982-2.624,9.4,9.4,0,0,1-3,1.143,4.717,4.717,0,0,0-3.446-1.492A4.889,4.889,0,0,0,14-.276,13.763,13.763,0,0,1,4.211-5.445,4.731,4.731,0,0,0,5.669.862,4.82,4.82,0,0,1,3.529.27a4.734,4.734,0,0,0,3.79,4.69,4.734,4.734,0,0,1-2.128.079A4.845,4.845,0,0,0,9.8,8.159,10.138,10.138,0,0,1,2.606,10.276Z" transform="translate(14.394 15.305)" fill="#2478f9"/>
    <path id="Path_20" data-name="Path 20" d="M28.465-6.132C14.581-6.132,3.281,4.757,3.281,18.149s11.3,24.275,25.184,24.275S53.649,31.535,53.649,18.149,42.348-6.132,28.465-6.132Zm0,51.725C12.769,45.593,0,33.282,0,18.149S12.769-9.3,28.465-9.3,56.93,3.011,56.93,18.149,44.16,45.593,28.465,45.593Z" transform="translate(0 0.294)" fill="#2478f9"/>
  </g>
</svg>
